<?xml version="1.0" encoding="iso-8859-1"?>
<!-- Generator: Adobe Illustrator 16.0.0, SVG Export Plug-In . SVG Version: 6.00 Build 0)  -->
<!DOCTYPE svg PUBLIC "-//W3C//DTD SVG 1.1//EN" "http://www.w3.org/Graphics/SVG/1.1/DTD/svg11.dtd">
<svg xmlns="http://www.w3.org/2000/svg" xmlns:xlink="http://www.w3.org/1999/xlink" version="1.1" id="Capa_1" x="0px" y="0px" width="512px" height="512px" viewBox="0 0 100.787 100.787" style="enable-background:new 0 0 100.787 100.787;" xml:space="preserve">
<g>
	<g>
		<path d="M99.288,94.894h-7.121v-4.833c0-0.276-0.224-0.5-0.5-0.5s-0.5,0.224-0.5,0.5v4.833h-9v-4.833c0-0.276-0.224-0.5-0.5-0.5    s-0.5,0.224-0.5,0.5v4.833h-9v-4.833c0-0.276-0.224-0.5-0.5-0.5s-0.5,0.224-0.5,0.5v4.833h-9v-4.833c0-0.276-0.224-0.5-0.5-0.5    s-0.5,0.224-0.5,0.5v4.833h-9v-4.833c0-0.276-0.224-0.5-0.5-0.5s-0.5,0.224-0.5,0.5v4.833h-9v-4.833c0-0.276-0.224-0.5-0.5-0.5    s-0.5,0.224-0.5,0.5v4.833h-9v-4.833c0-0.276-0.224-0.5-0.5-0.5s-0.5,0.224-0.5,0.5v4.833h-9v-4.833c0-0.276-0.224-0.5-0.5-0.5    s-0.5,0.224-0.5,0.5v4.833H3V83.561h4.016c0.276,0,0.5-0.224,0.5-0.5s-0.224-0.5-0.5-0.5H3v-9h4.016c0.276,0,0.5-0.224,0.5-0.5    s-0.224-0.5-0.5-0.5H3v-9h4.016c0.276,0,0.5-0.224,0.5-0.5s-0.224-0.5-0.5-0.5H3v-9h4.016c0.276,0,0.5-0.224,0.5-0.5    s-0.224-0.5-0.5-0.5H3v-9h4.016c0.276,0,0.5-0.224,0.5-0.5s-0.224-0.5-0.5-0.5H3v-9h4.016c0.276,0,0.5-0.224,0.5-0.5    s-0.224-0.5-0.5-0.5H3v-9h4.016c0.276,0,0.5-0.224,0.5-0.5s-0.224-0.5-0.5-0.5H3v-9h4.016c0.276,0,0.5-0.224,0.5-0.5    s-0.224-0.5-0.5-0.5H3V4.394c0-0.829-0.672-1.5-1.5-1.5S0,3.564,0,4.394v92c0,0.829,0.672,1.5,1.5,1.5h97.787    c0.828,0,1.5-0.671,1.5-1.5S100.116,94.894,99.288,94.894z" fill="#32b8f1"/>
		<polygon points="42.537,46.916 50.432,73.493 59.752,39.505 67.465,57.102 86.092,20.641 84.311,19.729 67.604,52.436     59.316,33.532 50.356,66.21 43.199,42.122 24.022,72.484 25.713,73.553   " fill="#32b8f1"/>
	</g>
</g>
<g>
</g>
<g>
</g>
<g>
</g>
<g>
</g>
<g>
</g>
<g>
</g>
<g>
</g>
<g>
</g>
<g>
</g>
<g>
</g>
<g>
</g>
<g>
</g>
<g>
</g>
<g>
</g>
<g>
</g>
</svg>
