<?xml version="1.0" encoding="iso-8859-1"?>
<!-- Generator: Adobe Illustrator 19.0.0, SVG Export Plug-In . SVG Version: 6.00 Build 0)  -->
<svg xmlns="http://www.w3.org/2000/svg" xmlns:xlink="http://www.w3.org/1999/xlink" version="1.1" id="Layer_1" x="0px" y="0px" viewBox="0 0 512.213 512.213" style="enable-background:new 0 0 512.213 512.213;" xml:space="preserve" width="512px" height="512px">
<g transform="translate(0 1)">
	<g>
		<g>
			<path d="M489.067,187.8L292.8,13.72c-20.48-19.627-52.907-19.627-73.387,0l-65.707,59.733v-23.04h8.533     c5.12,0,8.533-3.413,8.533-8.533V7.747c0-5.12-3.413-8.533-8.533-8.533H59.84c-5.12,0-8.533,3.413-8.533,8.533V41.88     c0,5.12,3.413,8.533,8.533,8.533h8.533v98.133L23.147,187.8c-5.973,5.973-7.68,13.653-5.12,21.333     c2.56,6.827,10.24,11.947,17.92,11.947h32.427v238.933H59.84c-5.12,0-8.533,3.413-8.533,8.533v34.133     c0,5.12,3.413,8.533,8.533,8.533h392.533c4.267,0,8.533-3.413,8.533-9.387v-34.133c0-2.56-0.853-4.267-2.56-5.973     c-1.707-1.707-3.413-2.56-5.973-2.56h-8.533V220.227h32.427c8.533,0,15.36-4.267,17.92-11.947     C496.747,201.453,495.04,192.92,489.067,187.8z M477.973,203.16c-0.853,0.853-1.707,0.853-1.707,0.853h-40.96     c-5.12,0-8.533,3.413-8.533,8.533v256c0,5.12,3.413,8.533,8.533,8.533h8.533v17.067H68.373V477.08h8.533     c5.12,0,8.533-3.413,8.533-8.533v-256c0-5.12-3.413-8.533-8.533-8.533h-40.96c-0.853,0-1.707,0-1.707-0.853s0-1.707,0.853-2.56     l47.787-40.96c1.707-1.707,2.56-4.267,2.56-6.827V41.88c0-5.12-3.413-8.533-8.533-8.533h-8.533V16.28h85.333v17.067h-8.533     c-5.12,0-8.533,3.413-8.533,8.533v51.2c0,3.413,1.707,6.827,5.12,9.387c3.413,0.853,6.827,0.853,9.387-1.707l80.213-73.387     c13.653-13.653,34.987-13.653,49.493,0l196.267,174.08C477.973,201.453,478.827,202.307,477.973,203.16z" fill="#e354a3"/>
			<path d="M290.24,263.747c-4.267-0.853-8.533,2.56-9.387,6.827L276.587,303l-13.653-26.453c-2.56-5.973-12.8-5.973-15.36,0     L233.92,303l-4.267-32.427c0-4.267-4.267-7.68-9.387-6.827c-4.267,0-7.68,5.12-6.827,9.387l8.533,59.733     c0,3.413,3.413,5.973,6.827,6.827c4.267,0.853,7.68-0.853,9.387-4.267l17.92-35.84l17.92,35.84c1.707,3.413,4.267,5.12,7.68,5.12     c0.853,0,0.853,0,0-0.853c3.413,0,5.973-3.413,6.827-6.827l8.533-59.733C297.92,268.867,294.507,264.6,290.24,263.747z" fill="#e354a3"/>
			<path d="M392.64,263.747c-4.267-0.853-8.533,2.56-9.387,6.827L378.987,303l-13.653-26.453c-3.413-5.973-12.8-5.973-15.36,0     L336.32,303l-4.267-32.427c0-4.267-5.12-7.68-9.387-6.827c-4.267,0-7.68,5.12-6.827,9.387l8.533,59.733     c0,3.413,3.413,5.973,6.827,6.827c4.267,0.853,7.68-0.853,9.387-4.267l17.92-35.84l17.92,35.84c1.707,3.413,4.267,5.12,7.68,5.12     c0.853,0,0.853,0,0-0.853c3.413,0,5.973-3.413,6.827-6.827l8.533-59.733C400.32,268.867,396.907,264.6,392.64,263.747z" fill="#e354a3"/>
			<path d="M187.84,263.747c-4.267-0.853-8.533,2.56-9.387,6.827L174.187,303l-13.653-26.453c-2.56-5.973-12.8-5.973-15.36,0     L131.52,303l-4.267-32.427c0-4.267-5.12-7.68-9.387-6.827c-4.267,0-7.68,5.12-6.827,9.387l8.533,59.733     c0,3.413,3.413,5.973,6.827,6.827c4.267,0.853,7.68-0.853,9.387-4.267l17.92-35.84l17.92,35.84c1.707,3.413,4.267,5.12,7.68,5.12     c0.853,0,0.853,0,0-0.853c3.413,0,5.973-3.413,6.827-6.827l8.533-59.733C195.52,268.867,192.107,264.6,187.84,263.747z" fill="#e354a3"/>
		</g>
	</g>
</g>
<g>
</g>
<g>
</g>
<g>
</g>
<g>
</g>
<g>
</g>
<g>
</g>
<g>
</g>
<g>
</g>
<g>
</g>
<g>
</g>
<g>
</g>
<g>
</g>
<g>
</g>
<g>
</g>
<g>
</g>
</svg>
