<?xml version="1.0" encoding="iso-8859-1"?>
<!-- Generator: Adobe Illustrator 16.0.0, SVG Export Plug-In . SVG Version: 6.00 Build 0)  -->
<!DOCTYPE svg PUBLIC "-//W3C//DTD SVG 1.1//EN" "http://www.w3.org/Graphics/SVG/1.1/DTD/svg11.dtd">
<svg xmlns="http://www.w3.org/2000/svg" xmlns:xlink="http://www.w3.org/1999/xlink" version="1.1" id="Capa_1" x="0px" y="0px" width="512px" height="512px" viewBox="0 0 91.89 91.891" style="enable-background:new 0 0 91.89 91.891;" xml:space="preserve">
<g>
	<path d="M66.335,91.891h-40.78c-1.8,0-3.265-1.465-3.265-3.265V3.265c0-1.8,1.464-3.265,3.265-3.265h40.78   c1.8,0,3.265,1.465,3.265,3.265v85.361C69.6,90.426,68.135,91.891,66.335,91.891z M25.555,1.001c-1.249,0-2.265,1.016-2.265,2.265   v85.361c0,1.249,1.016,2.265,2.265,2.265h40.78c1.249,0,2.265-1.016,2.265-2.265V3.265C68.6,2.016,67.584,1,66.335,1L25.555,1.001   L25.555,1.001z M45.945,88.379c-1.546,0-2.805-1.258-2.805-2.805s1.258-2.805,2.805-2.805c1.546,0,2.804,1.258,2.804,2.805   S47.492,88.379,45.945,88.379z M45.945,83.77c-0.995,0-1.805,0.809-1.805,1.805c0,0.994,0.81,1.805,1.805,1.805   c0.996,0,1.804-0.811,1.804-1.805C47.75,84.578,46.941,83.77,45.945,83.77z M65.453,80.486H26.438V11.405h39.015V80.486z    M27.438,79.486h37.015V12.405H27.438V79.486z M51.043,7.212H40.847c-0.519,0-0.941-0.422-0.941-0.941   c0-0.519,0.422-0.941,0.941-0.941h10.195c0.52,0,0.941,0.422,0.941,0.941C51.984,6.79,51.562,7.212,51.043,7.212z M40.847,5.829   c-0.243,0-0.441,0.198-0.441,0.441c0,0.243,0.198,0.441,0.441,0.441h10.195c0.242,0,0.441-0.198,0.441-0.441   c0-0.243-0.199-0.441-0.441-0.441H40.847z" fill="#e354a3"/>
</g>
<g>
</g>
<g>
</g>
<g>
</g>
<g>
</g>
<g>
</g>
<g>
</g>
<g>
</g>
<g>
</g>
<g>
</g>
<g>
</g>
<g>
</g>
<g>
</g>
<g>
</g>
<g>
</g>
<g>
</g>
</svg>
